#!OML:ASF C:\Vicon Data\Big\jianyuan-12\jianyuan\Session 1\Capture.male.ASF
:FULLY-SPECIFIED
:DEGREES
209
root -6.511559 17.135956 -7.614363 5.925499 3.221560 7.288335
lowerback -9.060672 -1.815845 -9.443254 
upperback 1.957213 -1.249566 -1.638194 
thorax 7.372745 -1.000527 3.369808 
lowerneck -4.570489 -4.636144 -5.853077 
upperneck 6.411873 -6.335775 6.917805 
head 3.389753 -3.074027 3.067549 
rclavicle 0.000000 0.000000 
rhumerus -46.434403 -31.742105 -71.259290 
rradius 32.943013 
rwrist 38.244771 
rhand -18.576370 -4.292913 
rfingers 0.000000 
rthumb 7.714052 -34.132192 
lclavicle 0.000000 0.000000 
lhumerus -22.936743 22.931432 84.102507 
lradius 32.255629 
lwrist -41.838267 
lhand -8.868089 4.773007 
lfingers 0.000000 
lthumb 17.073378 34.042808 
rfemur -38.985796 -7.648625 11.769548 
rtibia 62.165368 
rfoot -19.345451 -9.122219 
rtoes -6.995943 
lfemur -9.502978 -3.225149 -32.784393 
ltibia 21.082188 
lfoot -23.193134 2.619323 
ltoes -19.067702 
210
root -6.506701 17.137555 -7.545983 5.985513 3.258109 7.282169
lowerback -9.091251 -1.876053 -9.514860 
upperback 1.957198 -1.320893 -1.573538 
thorax 7.404080 -1.040652 3.466410 
lowerneck -4.604197 -4.626565 -5.881031 
upperneck 6.443409 -6.315480 6.859897 
head 3.404083 -3.065501 3.053260 
rclavicle 0.000000 0.000000 
rhumerus -46.603899 -31.705040 -71.141148 
rradius 32.993591 
rwrist 38.211333 
rhand -18.510114 -4.339540 
rfingers 0.000000 
rthumb 7.778026 -34.176505 
lclavicle 0.000000 0.000000 
lhumerus -22.582457 22.647990 84.335370 
lradius 32.421149 
lwrist -41.417685 
lhand -8.890995 4.733977 
lfingers 0.000000 
lthumb 17.051375 34.005622 
rfemur -39.244568 -7.358160 11.789346 
rtibia 60.922446 
rfoot -19.742640 -9.106631 
rtoes -5.949860 
lfemur -9.095214 -3.181257 -32.778863 
ltibia 20.653690 
lfoot -23.219271 2.592563 
ltoes -19.252893 
211
root -6.500632 17.140640 -7.477551 6.029249 3.300090 7.232340
lowerback -9.101214 -1.915344 -9.489958 
upperback 1.951919 -1.377242 -1.528016 
thorax 7.412097 -1.067766 3.491903 
lowerneck -4.597089 -4.630141 -6.055118 
upperneck 6.576367 -6.336549 7.141217 
head 3.294131 -3.061168 3.018665 
rclavicle 0.000000 0.000000 
rhumerus -46.838333 -31.875275 -70.889197 
rradius 32.943361 
rwrist 38.454238 
rhand -18.574255 -4.315016 
rfingers 0.000000 
rthumb 7.716117 -34.154278 
lclavicle 0.000000 0.000000 
lhumerus -22.289920 22.318963 84.531398 
lradius 32.643161 
lwrist -41.031524 
lhand -8.924112 4.732698 
lfingers 0.000000 
lthumb 17.019496 34.007094 
rfemur -39.465992 -7.074215 11.843381 
rtibia 59.636147 
rfoot -19.924129 -9.127318 
rtoes -5.799555 
lfemur -8.694645 -3.138170 -32.734082 
ltibia 20.278855 
lfoot -23.211513 2.462070 
ltoes -19.010773 
212
root -6.493271 17.143514 -7.408773 6.041077 3.346267 7.243638
lowerback -9.079440 -1.943872 -9.478931 
upperback 1.955792 -1.418652 -1.533920 
thorax 7.408808 -1.087350 3.473113 
lowerneck -4.642319 -4.626844 -6.085858 
upperneck 6.606016 -6.331172 7.144503 
head 3.390732 -3.062865 3.095950 
rclavicle 0.000000 0.000000 
rhumerus -47.116755 -32.056120 -70.691191 
rradius 32.984298 
rwrist 38.573990 
rhand -18.569837 -4.305892 
rfingers 0.000000 
rthumb 7.720340 -34.144987 
lclavicle 0.000000 0.000000 
lhumerus -21.973582 21.997017 84.675103 
lradius 32.794398 
lwrist -40.816885 
lhand -8.923783 4.710473 
lfingers 0.000000 
lthumb 17.019831 33.984867 
rfemur -39.622768 -6.808850 11.790515 
rtibia 58.310107 
rfoot -19.874119 -9.057614 
rtoes -6.470615 
lfemur -8.255446 -3.150151 -32.769753 
ltibia 19.914921 
lfoot -23.270895 2.465922 
ltoes -19.093891 
